<svg width="24" height="24" viewBox="0 0 24 24" fill="none" xmlns="http://www.w3.org/2000/svg">
<mask id="mask0_41_137" style="mask-type:alpha" maskUnits="userSpaceOnUse" x="0" y="0" width="24" height="24">
<rect width="24" height="24" fill="#D9D9D9"/>
</mask>
<g mask="url(#mask0_41_137)">
<path d="M12 21.75C10.6515 21.75 9.38425 21.4937 8.19825 20.981C7.01242 20.4682 5.98083 19.7723 5.1035 18.8935C4.22617 18.0145 3.53125 16.9826 3.01875 15.7978C2.50625 14.6131 2.25 13.3472 2.25 12C2.25 10.6515 2.50633 9.38425 3.019 8.19825C3.53183 7.01242 4.22767 5.98083 5.1065 5.1035C5.9855 4.22617 7.01742 3.53125 8.20225 3.01875C9.38692 2.50625 10.6528 2.25 12 2.25C13.3485 2.25 14.6158 2.50633 15.8018 3.019C16.9876 3.53183 18.0192 4.22767 18.8965 5.1065C19.7738 5.9855 20.4688 7.01742 20.9813 8.20225C21.4938 9.38692 21.75 10.6528 21.75 12C21.75 12.4243 21.725 12.8408 21.675 13.2495C21.625 13.6582 21.5458 14.0625 21.4375 14.4625C21.2042 14.2375 20.9438 14.051 20.6562 13.903C20.3689 13.7548 20.0543 13.6538 19.7125 13.6C19.7708 13.3417 19.8125 13.0793 19.8375 12.8128C19.8625 12.5461 19.875 12.2752 19.875 12C19.875 9.80833 19.1104 7.94792 17.5813 6.41875C16.0521 4.88958 14.1917 4.125 12 4.125C9.80833 4.125 7.94792 4.88958 6.41875 6.41875C4.88958 7.94792 4.125 9.80833 4.125 12C4.125 14.1917 4.88958 16.0521 6.41875 17.5813C7.94792 19.1104 9.80833 19.875 12 19.875C12.847 19.875 13.6567 19.7479 14.429 19.4938C15.2013 19.2396 15.9083 18.8833 16.55 18.425C16.725 18.7 16.9396 18.9458 17.1938 19.1625C17.4479 19.3792 17.7292 19.55 18.0375 19.675C17.2125 20.3333 16.2875 20.8438 15.2625 21.2063C14.2375 21.5688 13.15 21.75 12 21.75ZM19.249 17.9375C18.9163 17.9375 18.6354 17.8226 18.4062 17.5928C18.1771 17.3631 18.0625 17.0818 18.0625 16.749C18.0625 16.4163 18.1774 16.1354 18.4072 15.9063C18.6369 15.6771 18.9182 15.5625 19.251 15.5625C19.5837 15.5625 19.8646 15.6774 20.0938 15.9073C20.3229 16.1369 20.4375 16.4182 20.4375 16.751C20.4375 17.0837 20.3226 17.3646 20.0928 17.5938C19.8631 17.8229 19.5818 17.9375 19.249 17.9375ZM15.275 16.6L11.075 12.3775V7.075H12.95V11.625L16.6 15.275L15.275 16.6Z" fill="white"/>
</g>
</svg>
