<svg width="23" height="21" viewBox="0 0 23 21" fill="none" xmlns="http://www.w3.org/2000/svg">
<path fill-rule="evenodd" clip-rule="evenodd" d="M2.96923 9.03798C2.96923 5.157 6.27298 2 10.3331 2C14.3921 2 17.6959 5.157 17.6959 9.03798C17.6959 12.919 14.3921 16.077 10.3331 16.077C6.27298 16.077 2.96923 12.919 2.96923 9.03798ZM22.3178 19.497L17.5065 14.91C18.9251 13.329 19.7882 11.28 19.7882 9.03798C19.7882 4.055 15.546 0 10.3331 0C5.11908 0 0.876923 4.055 0.876923 9.03798C0.876923 14.022 5.11908 18.077 10.3331 18.077C12.4484 18.077 14.3974 17.401 15.9739 16.274L20.8406 20.913L22.3178 19.497Z" fill="black"/>
</svg>
