<svg width="21" height="21" viewBox="0 0 21 21" fill="none" xmlns="http://www.w3.org/2000/svg">
<path fill-rule="evenodd" clip-rule="evenodd" d="M2 9.03798C2 5.157 5.158 2 9.03896 2C12.919 2 16.077 5.157 16.077 9.03798C16.077 12.919 12.919 16.077 9.03896 16.077C5.158 16.077 2 12.919 2 9.03798ZM20.495 19.497L15.896 14.91C17.252 13.329 18.077 11.28 18.077 9.03798C18.077 4.055 14.022 0 9.03896 0C4.055 0 0 4.055 0 9.03798C0 14.022 4.055 18.077 9.03896 18.077C11.061 18.077 12.924 17.401 14.431 16.274L19.083 20.913L20.495 19.497Z" fill="white"/>
</svg>
