<svg width="31" height="31" viewBox="0 0 31 31" fill="none" xmlns="http://www.w3.org/2000/svg">
<mask id="mask0_69_190" style="mask-type:alpha" maskUnits="userSpaceOnUse" x="0" y="0" width="31" height="31">
<rect width="31" height="31" fill="#D9D9D9"/>
</mask>
<g mask="url(#mask0_69_190)">
<path d="M15.5 25.8334C14.7895 25.8334 14.1814 25.5804 13.6755 25.0745C13.1696 24.5686 12.9166 23.9604 12.9166 23.25C12.9166 22.5396 13.1696 21.9314 13.6755 21.4255C14.1814 20.9196 14.7895 20.6667 15.5 20.6667C16.2104 20.6667 16.8185 20.9196 17.3244 21.4255C17.8303 21.9314 18.0833 22.5396 18.0833 23.25C18.0833 23.9604 17.8303 24.5686 17.3244 25.0745C16.8185 25.5804 16.2104 25.8334 15.5 25.8334ZM15.5 18.0834C14.7895 18.0834 14.1814 17.8304 13.6755 17.3245C13.1696 16.8186 12.9166 16.2104 12.9166 15.5C12.9166 14.7896 13.1696 14.1814 13.6755 13.6755C14.1814 13.1696 14.7895 12.9167 15.5 12.9167C16.2104 12.9167 16.8185 13.1696 17.3244 13.6755C17.8303 14.1814 18.0833 14.7896 18.0833 15.5C18.0833 16.2104 17.8303 16.8186 17.3244 17.3245C16.8185 17.8304 16.2104 18.0834 15.5 18.0834ZM15.5 10.3334C14.7895 10.3334 14.1814 10.0804 13.6755 9.5745C13.1696 9.0686 12.9166 8.46044 12.9166 7.75002C12.9166 7.0396 13.1696 6.43144 13.6755 5.92554C14.1814 5.41964 14.7895 5.16669 15.5 5.16669C16.2104 5.16669 16.8185 5.41964 17.3244 5.92554C17.8303 6.43144 18.0833 7.0396 18.0833 7.75002C18.0833 8.46044 17.8303 9.0686 17.3244 9.5745C16.8185 10.0804 16.2104 10.3334 15.5 10.3334Z" fill="white"/>
</g>
</svg>
