<svg width="145" height="100" viewBox="0 0 145 100" fill="none" xmlns="http://www.w3.org/2000/svg">
<path d="M52.1858 0C61.8432 0 69.6721 7.8289 69.6721 17.4863V91.2568C69.6721 96.0855 65.7577 100 60.929 100C56.1002 100 52.1858 96.0856 52.1858 91.2568V50V42.639C52.1858 33.6107 43.7931 26.9254 34.9934 28.9441C31.1504 29.8258 27.8547 32.2815 25.9108 35.7119L19.6721 46.7213C15.8981 53.3814 6.11158 52.7746 3.18918 45.6993L2.46668 43.9501C0.962707 40.3089 1.71104 36.1257 4.38409 33.2317L20.9094 15.3407C28.7482 6.85402 39.3739 1.46422 50.8522 0.152411L52.1858 0Z" fill="#D9D9D9"/>
<path d="M92.0765 0C82.4191 0 74.5902 7.8289 74.5902 17.4863V91.2568C74.5902 96.0855 78.5046 100 83.3334 100C88.1621 100 92.0765 96.0856 92.0765 91.2568V50V42.639C92.0765 33.6107 100.469 26.9254 109.269 28.9441C113.112 29.8258 116.408 32.2815 118.352 35.7119L124.59 46.7213C128.364 53.3814 138.151 52.7746 141.073 45.6993L141.796 43.9501C143.3 40.3089 142.551 36.1257 139.878 33.2317L123.353 15.3407C115.514 6.85402 104.888 1.46422 93.4101 0.152411L92.0765 0Z" fill="#D9D9D9"/>
</svg>
